# Blender 3.3.1
# www.blender.org
o Cylinder
v 0.391579 -0.125191 -2.974335
v 0.391579 0.124809 -2.974335
v 0.776457 -0.125191 -2.897778
v 0.776457 0.124809 -2.897778
v 1.148050 -0.125191 -2.771638
v 1.148050 0.124809 -2.771638
v 1.500000 -0.125191 -2.598076
v 1.500000 0.124809 -2.598076
v 1.826284 -0.125191 -2.380060
v 1.826284 0.124809 -2.380060
v 2.121320 -0.125191 -2.121320
v 2.121320 0.124809 -2.121320
v 2.380060 -0.125191 -1.826284
v 2.380060 0.124809 -1.826284
v 2.598076 -0.125191 -1.500000
v 2.598076 0.124809 -1.500000
v 2.771638 -0.125191 -1.148050
v 2.771638 0.124809 -1.148050
v 2.897778 -0.125191 -0.776457
v 2.897778 0.124809 -0.776457
v 2.974335 -0.125191 -0.391579
v 2.974335 0.124809 -0.391579
v 2.874694 0.124806 0.000000
v 2.874694 -0.125194 0.000000
v 0.374725 -0.125191 -2.846318
v 0.374725 0.124809 -2.846318
v 0.743038 -0.125191 -2.773056
v 0.743038 0.124809 -2.773056
v 1.098638 -0.125191 -2.652346
v 1.098638 0.124809 -2.652346
v 1.435439 -0.125191 -2.486254
v 1.435439 0.124809 -2.486254
v 1.747680 -0.125191 -2.277621
v 1.747680 0.124809 -2.277621
v 2.030018 -0.125191 -2.030018
v 2.030018 0.124809 -2.030018
v 2.277622 -0.125191 -1.747680
v 2.277622 0.124809 -1.747680
v 2.486254 -0.125191 -1.435439
v 2.486254 0.124809 -1.435439
v 2.652346 -0.125191 -1.098638
v 2.652346 0.124809 -1.098638
v 2.773057 -0.125191 -0.743038
v 2.773057 0.124809 -0.743038
v 2.846318 -0.125191 -0.374725
v 2.846318 0.124809 -0.374725
v 3.002710 0.124806 -0.000000
v 3.002710 -0.125194 -0.000000
v 0.374725 -0.545939 -2.846318
v 0.374725 0.546066 -2.846318
v 0.391579 -0.545939 -2.974335
v 0.391579 0.546066 -2.974335
v -0.306366 -0.005530 -3.063414
v -0.323219 -0.005530 -2.935398
v 0.391579 -0.125191 2.974335
v 0.391579 0.124809 2.974335
v 0.776457 -0.125191 2.897778
v 0.776457 0.124809 2.897778
v 1.148050 -0.125191 2.771638
v 1.148050 0.124809 2.771638
v 1.500000 -0.125191 2.598076
v 1.500000 0.124809 2.598076
v 1.826284 -0.125191 2.380060
v 1.826284 0.124809 2.380060
v 2.121320 -0.125191 2.121320
v 2.121320 0.124809 2.121320
v 2.380060 -0.125191 1.826284
v 2.380060 0.124809 1.826284
v 2.598076 -0.125191 1.500000
v 2.598076 0.124809 1.500000
v 2.771638 -0.125191 1.148050
v 2.771638 0.124809 1.148050
v 2.897778 -0.125191 0.776457
v 2.897778 0.124809 0.776457
v 2.974335 -0.125191 0.391579
v 2.974335 0.124809 0.391579
v 0.374725 -0.125191 2.846318
v 0.374725 0.124809 2.846318
v 0.743038 -0.125191 2.773056
v 0.743038 0.124809 2.773056
v 1.098638 -0.125191 2.652346
v 1.098638 0.124809 2.652346
v 1.435439 -0.125191 2.486254
v 1.435439 0.124809 2.486254
v 1.747680 -0.125191 2.277621
v 1.747680 0.124809 2.277621
v 2.030018 -0.125191 2.030018
v 2.030018 0.124809 2.030018
v 2.277622 -0.125191 1.747680
v 2.277622 0.124809 1.747680
v 2.486254 -0.125191 1.435439
v 2.486254 0.124809 1.435439
v 2.652346 -0.125191 1.098638
v 2.652346 0.124809 1.098638
v 2.773057 -0.125191 0.743038
v 2.773057 0.124809 0.743038
v 2.846318 -0.125191 0.374725
v 2.846318 0.124809 0.374725
v 0.374725 -0.545939 2.846318
v 0.374725 0.546066 2.846318
v 0.391579 -0.545939 2.974335
v 0.391579 0.546066 2.974335
v -0.306366 -0.005530 3.063414
v -0.323219 -0.005530 2.935398
vn 0.1951 -0.0000 -0.9808
vn 0.2588 -0.0000 -0.9659
vn 0.3827 -0.0000 -0.9239
vn 0.5000 -0.0000 -0.8660
vn 0.6088 -0.0000 -0.7934
vn 0.7071 -0.0000 -0.7071
vn 0.7934 -0.0000 -0.6088
vn 0.8660 -0.0000 -0.5000
vn 0.9239 -0.0000 -0.3827
vn 0.9659 -0.0000 -0.2588
vn 0.9910 -0.0000 -0.1339
vn -0.1951 -0.0000 0.9808
vn -0.2588 -0.0000 0.9659
vn -0.3827 -0.0000 0.9239
vn -0.5000 -0.0000 0.8660
vn -0.6088 -0.0000 0.7934
vn -0.7071 -0.0000 0.7071
vn -0.7934 -0.0000 0.6088
vn -0.8660 -0.0000 0.5000
vn -0.9239 -0.0000 0.3827
vn -0.9659 -0.0000 0.2588
vn -0.9908 -0.0000 0.1355
vn -0.0000 1.0000 -0.0000
vn -0.0000 -1.0000 -0.0000
vn 0.9914 -0.0000 0.1305
vn -0.1266 -0.0000 0.9920
vn -0.6117 0.7870 -0.0805
vn 0.1266 -0.0000 -0.9920
vn -0.6039 -0.7931 -0.0795
vn 0.1951 -0.0000 0.9808
vn 0.2588 -0.0000 0.9659
vn 0.3827 -0.0000 0.9239
vn 0.5000 -0.0000 0.8660
vn 0.6088 -0.0000 0.7934
vn 0.7071 -0.0000 0.7071
vn 0.7934 -0.0000 0.6088
vn 0.8660 -0.0000 0.5000
vn 0.9239 -0.0000 0.3827
vn 0.9659 -0.0000 0.2588
vn 0.9910 -0.0000 0.1339
vn -0.1951 -0.0000 -0.9808
vn -0.2588 -0.0000 -0.9659
vn -0.3827 -0.0000 -0.9239
vn -0.5000 -0.0000 -0.8660
vn -0.6088 -0.0000 -0.7934
vn -0.7071 -0.0000 -0.7071
vn -0.7934 -0.0000 -0.6088
vn -0.8660 -0.0000 -0.5000
vn -0.9239 -0.0000 -0.3827
vn -0.9659 -0.0000 -0.2588
vn -0.9908 -0.0000 -0.1355
vn 0.9914 -0.0000 -0.1305
vn 1.0000 -0.0000 -0.0000
vn -0.1266 -0.0000 -0.9920
vn -0.6117 0.7870 0.0805
vn 0.1266 -0.0000 0.9920
vn -0.6039 -0.7931 0.0795
vn -1.0000 -0.0000 -0.0000
vt 0.146070 0.850441
vt 0.149946 0.730440
vt 0.141780 0.947312
vt 0.149266 0.677749
vt 0.229128 0.728500
vt 0.229605 0.678895
vt 0.306151 0.728434
vt 0.306877 0.679172
vt 0.382911 0.728801
vt 0.383667 0.679568
vt 0.459624 0.729230
vt 0.460386 0.679998
vt 0.536331 0.729667
vt 0.537093 0.680436
vt 0.613036 0.730106
vt 0.613799 0.680874
vt 0.689744 0.730543
vt 0.690505 0.681311
vt 0.766462 0.730974
vt 0.767217 0.681735
vt 0.843245 0.731373
vt 0.843948 0.682071
vt 0.920407 0.731729
vt 0.920632 0.681943
vt 0.997654 0.509582
vt 0.997972 0.656426
vt 0.997971 0.928629
vt 0.999710 0.237402
vt 0.997971 0.875932
vt 0.998979 0.407472
vt 0.997973 0.758544
vt 0.999025 0.290094
vt 0.152493 0.756792
vt 0.127193 0.875933
vt 0.151557 0.650486
vt 0.127193 0.928630
vt 0.206350 0.875933
vt 0.229455 0.754411
vt 0.206350 0.928630
vt 0.229997 0.652482
vt 0.285506 0.875933
vt 0.306066 0.754403
vt 0.285506 0.928630
vt 0.307063 0.653114
vt 0.364663 0.875933
vt 0.382759 0.754776
vt 0.364663 0.928630
vt 0.383833 0.653578
vt 0.443819 0.875933
vt 0.459462 0.755205
vt 0.443819 0.928630
vt 0.460549 0.654021
vt 0.522975 0.875933
vt 0.536168 0.755643
vt 0.522975 0.928630
vt 0.537256 0.654460
vt 0.602132 0.875933
vt 0.612873 0.756082
vt 0.602132 0.928630
vt 0.613962 0.654899
vt 0.681288 0.875933
vt 0.689580 0.756521
vt 0.681288 0.928630
vt 0.690666 0.655336
vt 0.760445 0.875933
vt 0.766297 0.756964
vt 0.760445 0.928630
vt 0.767367 0.655765
vt 0.839601 0.875933
vt 0.843069 0.757424
vt 0.839601 0.928630
vt 0.844041 0.656142
vt 0.918758 0.875933
vt 0.920108 0.757997
vt 0.920568 0.656280
vt 0.918758 0.928630
vt 0.997972 0.682735
vt 0.997995 0.483275
vt 0.998635 0.433930
vt 0.997973 0.732084
vt 0.080845 0.831153
vt 0.079672 0.970337
vt 0.151090 0.819117
vt 0.078971 0.809701
vt 0.080830 0.994902
vt 0.148121 0.588965
vt 0.001321 0.901261
vt 0.001328 0.707133
vt 0.030094 0.901441
vt 0.146865 0.304527
vt 0.150660 0.424568
vt 0.143832 0.207608
vt 0.149296 0.477245
vt 0.229810 0.427535
vt 0.229643 0.477142
vt 0.306826 0.428600
vt 0.306912 0.477868
vt 0.383584 0.429230
vt 0.383701 0.478469
vt 0.460296 0.429797
vt 0.460418 0.479034
vt 0.537001 0.430355
vt 0.537125 0.479592
vt 0.613706 0.430912
vt 0.613830 0.480149
vt 0.690413 0.431470
vt 0.690535 0.480708
vt 0.767130 0.432035
vt 0.767246 0.481280
vt 0.843912 0.432633
vt 0.843975 0.481940
vt 0.921072 0.433278
vt 0.920651 0.483063
vt 0.153549 0.398251
vt 0.128320 0.278792
vt 0.151233 0.504536
vt 0.129004 0.226099
vt 0.207470 0.279819
vt 0.230473 0.401631
vt 0.208154 0.227127
vt 0.229692 0.503558
vt 0.286620 0.280846
vt 0.307078 0.402633
vt 0.287304 0.228154
vt 0.306760 0.503926
vt 0.365770 0.281874
vt 0.383769 0.403255
vt 0.366454 0.229181
vt 0.383529 0.504458
vt 0.444920 0.282901
vt 0.460471 0.403821
vt 0.445604 0.230209
vt 0.460245 0.505012
vt 0.524070 0.283928
vt 0.537176 0.404379
vt 0.524754 0.231236
vt 0.536951 0.505568
vt 0.603220 0.284956
vt 0.613880 0.404936
vt 0.603904 0.232263
vt 0.613655 0.506125
vt 0.682370 0.285983
vt 0.690587 0.405492
vt 0.683054 0.233291
vt 0.690359 0.506683
vt 0.761520 0.287010
vt 0.767303 0.406046
vt 0.762204 0.234318
vt 0.767060 0.507250
vt 0.840670 0.288038
vt 0.844074 0.406582
vt 0.841354 0.235345
vt 0.843732 0.507868
vt 0.921113 0.407008
vt 0.919819 0.289065
vt 0.920253 0.508723
vt 0.920503 0.236373
vt 0.081394 0.322967
vt 0.082028 0.183779
vt 0.152955 0.335913
vt 0.079242 0.344393
vt 0.083504 0.159231
vt 0.146999 0.566007
vt 0.002786 0.251833
vt 0.001752 0.445944
vt 0.031560 0.252026
s 1
f 1/2/1 2/4/1 4/6/2 3/5/2
f 3/5/2 4/6/2 6/8/3 5/7/3
f 5/7/3 6/8/3 8/10/4 7/9/4
f 7/9/4 8/10/4 10/12/5 9/11/5
f 9/11/5 10/12/5 12/14/6 11/13/6
f 11/13/6 12/14/6 14/16/7 13/15/7
f 13/15/7 14/16/7 16/18/8 15/17/8
f 15/17/8 16/18/8 18/20/9 17/19/9
f 17/19/9 18/20/9 20/22/10 19/21/10
f 19/21/10 20/22/10 22/24/11 21/23/11
f 25/34/12 27/37/13 28/39/13 26/36/12
f 27/37/13 29/41/14 30/43/14 28/39/13
f 29/41/14 31/45/15 32/47/15 30/43/14
f 31/45/15 33/49/16 34/51/16 32/47/15
f 33/49/16 35/53/17 36/55/17 34/51/16
f 35/53/17 37/57/18 38/59/18 36/55/17
f 37/57/18 39/61/19 40/63/19 38/59/18
f 39/61/19 41/65/20 42/67/20 40/63/19
f 41/65/20 43/69/21 44/71/21 42/67/20
f 43/69/21 45/73/22 46/76/22 44/71/21
s 0
f 6/8/23 30/44/23 32/48/23 8/10/23
f 9/11/24 33/50/24 31/46/24 7/9/24
f 8/10/23 32/48/23 34/52/23 10/12/23
f 11/13/24 35/54/24 33/50/24 9/11/24
f 10/12/23 34/52/23 36/56/23 12/14/23
f 13/15/24 37/58/24 35/54/24 11/13/24
f 12/14/23 36/56/23 38/60/23 14/16/23
f 15/17/24 39/62/24 37/58/24 13/15/24
f 14/16/23 38/60/23 40/64/23 16/18/23
f 17/19/24 41/66/24 39/62/24 15/17/24
f 16/18/23 40/64/23 42/68/23 18/20/23
f 19/21/24 43/70/24 41/66/24 17/19/24
f 18/20/23 42/68/23 44/72/23 20/22/23
f 3/5/24 27/38/24 25/33/24 1/2/24
f 21/23/24 45/74/24 43/70/24 19/21/24
f 2/4/23 26/35/23 28/40/23 4/6/23
f 20/22/23 44/72/23 46/75/23 22/24/23
f 5/7/24 29/42/24 27/38/24 3/5/24
f 25/34/25 49/81/25 51/84/25 1/1/25
f 98/156/23 76/113/23 47/78/23 23/25/23
f 4/6/23 28/40/23 30/44/23 6/8/23
f 22/24/23 46/75/23 23/26/23 47/77/23
f 2/3/25 52/85/25 50/82/25 26/36/25
f 49/81/26 25/34/26 54/89/26
f 7/9/24 31/46/24 29/42/24 5/7/24
f 52/85/27 53/87/27 54/89/27 50/82/27
f 1/2/28 51/83/28 53/88/28
f 49/81/29 54/89/29 53/87/29 51/84/29
f 2/4/28 1/2/28 53/88/28
f 52/86/28 2/4/28 53/88/28
f 25/34/26 26/36/26 54/89/26
f 26/36/26 50/82/26 54/89/26
s 1
f 55/91/30 57/94/31 58/95/31 56/93/30
f 57/94/31 59/96/32 60/97/32 58/95/31
f 59/96/32 61/98/33 62/99/33 60/97/32
f 61/98/33 63/100/34 64/101/34 62/99/33
f 63/100/34 65/102/35 66/103/35 64/101/34
f 65/102/35 67/104/36 68/105/36 66/103/35
f 67/104/36 69/106/37 70/107/37 68/105/36
f 69/106/37 71/108/38 72/109/38 70/107/37
f 71/108/38 73/110/39 74/111/39 72/109/38
f 73/110/39 75/112/40 76/113/40 74/111/39
f 77/115/41 78/117/41 80/120/42 79/118/42
f 79/118/42 80/120/42 82/124/43 81/122/43
f 81/122/43 82/124/43 84/128/44 83/126/44
f 83/126/44 84/128/44 86/132/45 85/130/45
f 85/130/45 86/132/45 88/136/46 87/134/46
f 87/134/46 88/136/46 90/140/47 89/138/47
f 89/138/47 90/140/47 92/144/48 91/142/48
f 91/142/48 92/144/48 94/148/49 93/146/49
f 93/146/49 94/148/49 96/152/50 95/150/50
f 95/150/50 96/152/50 98/157/51 97/155/51
s 0
f 60/97/23 62/99/23 84/129/23 82/125/23
f 63/100/24 61/98/24 83/127/24 85/131/24
f 62/99/23 64/101/23 86/133/23 84/129/23
f 65/102/24 63/100/24 85/131/24 87/135/24
f 64/101/23 66/103/23 88/137/23 86/133/23
f 67/104/24 65/102/24 87/135/24 89/139/24
f 66/103/23 68/105/23 90/141/23 88/137/23
f 69/106/24 67/104/24 89/139/24 91/143/24
f 68/105/23 70/107/23 92/145/23 90/141/23
f 71/108/24 69/106/24 91/143/24 93/147/24
f 70/107/23 72/109/23 94/149/23 92/145/23
f 73/110/24 71/108/24 93/147/24 95/151/24
f 72/109/23 74/111/23 96/153/23 94/149/23
f 57/94/24 55/91/24 77/114/24 79/119/24
f 75/112/24 73/110/24 95/151/24 97/154/24
f 56/93/23 58/95/23 80/121/23 78/116/23
f 74/111/23 76/113/23 98/156/23 96/153/23
f 59/96/24 57/94/24 79/119/24 81/123/24
f 77/115/52 55/90/52 101/161/52 99/158/52
f 58/95/23 60/97/23 82/125/23 80/121/23
s 1
f 21/23/11 22/24/11 47/77/53 48/80/53
s 0
f 56/92/52 78/117/52 100/159/52 102/162/52
f 99/158/54 104/166/54 77/115/54
f 61/98/24 59/96/24 81/123/24 83/127/24
f 102/162/55 100/159/55 104/166/55 103/164/55
f 55/91/56 103/165/56 101/160/56
f 99/158/57 101/161/57 103/164/57 104/166/57
f 56/93/56 103/165/56 55/91/56
f 102/163/56 103/165/56 56/93/56
f 77/115/54 104/166/54 78/117/54
f 78/117/54 104/166/54 100/159/54
s 1
f 46/76/22 45/73/22 24/29/58 23/27/58
s 0
f 75/112/24 97/154/24 24/30/24 48/79/24
s 1
f 76/113/40 75/112/40 48/79/53 47/78/53
s 0
f 45/74/24 21/23/24 48/80/24 24/31/24
s 1
f 97/155/51 98/157/51 23/28/58 24/32/58
