# Blender 3.3.1
# www.blender.org
o Triangle
v -1.000000 -1.784260 -1.800000
v -0.800000 -1.800000 -2.000000
v -0.995106 -1.789124 -1.861803
v -0.984776 -1.793512 -1.917557
v -0.941421 -1.796994 -1.961803
v -0.876537 -1.799230 -1.990211
v -1.000000 -1.800000 -1.784260
v -0.800000 -2.000000 -1.800000
v -0.995106 -1.861803 -1.789124
v -0.984776 -1.917557 -1.793512
v -0.941421 -1.961803 -1.796994
v -0.876537 -1.990211 -1.799230
v -1.000000 -1.798344 -1.798344
v -0.800000 -1.861803 -1.990211
v -0.995106 -1.818566 -1.857140
v -0.984776 -1.836010 -1.910826
v -0.941421 -1.849853 -1.953431
v -0.876537 -1.858741 -1.980786
v -0.800000 -1.917557 -1.961803
v -0.995106 -1.835315 -1.848606
v -0.984776 -1.868494 -1.894274
v -0.941421 -1.894826 -1.930516
v -0.876537 -1.911732 -1.953786
v -0.800000 -1.961803 -1.917557
v -0.995106 -1.848606 -1.835315
v -0.984776 -1.894274 -1.868494
v -0.941421 -1.930516 -1.894826
v -0.876537 -1.953786 -1.911732
v -0.800000 -1.990211 -1.861804
v -0.995106 -1.857140 -1.818566
v -0.984776 -1.910826 -1.836010
v -0.941421 -1.953431 -1.849853
v -0.876537 -1.980786 -1.858741
v 1.000000 -1.800000 -1.784260
v 0.800000 -2.000000 -1.800000
v 0.995106 -1.861803 -1.789124
v 0.984776 -1.917557 -1.793512
v 0.941421 -1.961803 -1.796994
v 0.876537 -1.990211 -1.799230
v 1.000000 -1.784260 -1.800000
v 0.800000 -1.800000 -2.000000
v 0.995106 -1.789124 -1.861803
v 0.984776 -1.793512 -1.917557
v 0.941421 -1.796994 -1.961803
v 0.876537 -1.799230 -1.990211
v 1.000000 -1.798344 -1.798344
v 0.800000 -1.990211 -1.861804
v 0.995106 -1.857140 -1.818566
v 0.984776 -1.910826 -1.836010
v 0.941421 -1.953431 -1.849853
v 0.876537 -1.980786 -1.858741
v 0.800000 -1.961803 -1.917557
v 0.995106 -1.848606 -1.835315
v 0.984776 -1.894274 -1.868494
v 0.941421 -1.930516 -1.894826
v 0.876537 -1.953786 -1.911732
v 0.800000 -1.917557 -1.961803
v 0.995106 -1.835315 -1.848606
v 0.984776 -1.868494 -1.894274
v 0.941421 -1.894826 -1.930516
v 0.876537 -1.911732 -1.953786
v 0.800000 -1.861803 -1.990211
v 0.995106 -1.818566 -1.857140
v 0.984776 -1.836010 -1.910826
v 0.941421 -1.849853 -1.953431
v 0.876537 -1.858741 -1.980786
v -1.000000 -1.830649 1.594568
v -0.800000 -2.000000 1.600000
v -0.995106 -1.861803 1.591320
v -0.984776 -1.917557 1.594822
v -0.941421 -1.961803 1.597601
v -0.876537 -1.990211 1.599385
v -0.800000 -1.717157 1.717157
v -0.995106 -1.808739 1.613299
v -0.984776 -1.771791 1.655200
v -0.941421 -1.742470 1.688452
v -0.876537 -1.723644 1.709801
v -0.800000 -1.986157 1.709763
v -0.995106 -1.869933 1.685115
v -0.984776 -1.906386 1.683400
v -0.941421 -1.949198 1.697549
v -0.876537 -1.976685 1.706633
v -0.800000 -1.945982 1.781096
v -0.984776 -1.888123 1.715826
v -0.941421 -1.919175 1.750856
v -0.876537 -1.939112 1.773346
v -0.800000 -1.883408 1.807015
v -0.984776 -1.878168 1.719950
v -0.941421 -1.880980 1.766677
v -0.876537 -1.882786 1.796677
v -0.800000 -1.804560 1.784983
v -0.984776 -1.842325 1.709935
v -0.941421 -1.822057 1.750213
v -0.876537 -1.809044 1.776073
v -1.000000 1.595168 -1.832609
v -0.800000 1.717157 -1.717157
v -0.995106 1.613299 -1.808739
v -0.984776 1.655200 -1.771791
v -0.941421 1.688452 -1.742470
v -0.876537 1.709801 -1.723644
v -0.800000 1.600000 -2.000000
v -0.995106 1.591320 -1.861803
v -0.984776 1.594822 -1.917557
v -0.941421 1.597601 -1.961803
v -0.876537 1.599385 -1.990211
v -0.800000 1.784983 -1.804561
v -0.995106 1.676993 -1.866460
v -0.984776 1.709935 -1.842325
v -0.941421 1.750213 -1.822057
v -0.876537 1.776073 -1.809044
v -0.800000 1.807015 -1.883408
v -0.984776 1.719950 -1.878168
v -0.941421 1.766677 -1.880980
v -0.876537 1.796677 -1.882786
v -0.800000 1.781096 -1.945982
v -0.984776 1.715826 -1.888123
v -0.941421 1.750856 -1.919175
v -0.876537 1.773346 -1.939112
v -0.800000 1.709764 -1.986157
v -0.984776 1.683400 -1.906386
v -0.941421 1.697549 -1.949198
v -0.876537 1.706633 -1.976685
v 1.000000 -1.829976 1.590971
v 0.800000 -1.717157 1.717157
v 0.995106 -1.808739 1.613299
v 0.984776 -1.771791 1.655200
v 0.941421 -1.742470 1.688452
v 0.876537 -1.723644 1.709801
v 0.800000 -2.000000 1.600000
v 0.995106 -1.861803 1.591320
v 0.984776 -1.917557 1.594822
v 0.941421 -1.961803 1.597601
v 0.876537 -1.990211 1.599385
v 0.800000 -1.804560 1.784983
v 0.995106 -1.866129 1.678007
v 0.984776 -1.842325 1.709935
v 0.941421 -1.822057 1.750213
v 0.876537 -1.809044 1.776073
v 0.800000 -1.883408 1.807015
v 0.984776 -1.878168 1.719950
v 0.941421 -1.880980 1.766677
v 0.876537 -1.882786 1.796677
v 0.800000 -1.945982 1.781096
v 0.984776 -1.888123 1.715826
v 0.941421 -1.919175 1.750856
v 0.876537 -1.939112 1.773346
v 0.800000 -1.986157 1.709763
v 0.984776 -1.906386 1.683400
v 0.941421 -1.949198 1.697549
v 0.876537 -1.976685 1.706633
v 1.000000 1.595352 -1.831405
v 0.800000 1.600000 -2.000000
v 0.995106 1.591320 -1.861803
v 0.984776 1.594822 -1.917557
v 0.941421 1.597601 -1.961803
v 0.876537 1.599385 -1.990211
v 0.800000 1.717157 -1.717157
v 0.995106 1.613299 -1.808739
v 0.984776 1.655200 -1.771791
v 0.941421 1.688452 -1.742470
v 0.876537 1.709801 -1.723644
v 0.800000 1.709764 -1.986157
v 0.995106 1.672495 -1.864175
v 0.984776 1.683400 -1.906386
v 0.941421 1.697549 -1.949198
v 0.876537 1.706633 -1.976685
v 0.800000 1.781096 -1.945982
v 0.984776 1.715826 -1.888123
v 0.941421 1.750856 -1.919175
v 0.876537 1.773346 -1.939112
v 0.800000 1.807015 -1.883408
v 0.984776 1.719950 -1.878168
v 0.941421 1.766677 -1.880980
v 0.876537 1.796677 -1.882786
v 0.800000 1.784983 -1.804561
v 0.984776 1.709935 -1.842325
v 0.941421 1.750213 -1.822057
v 0.876537 1.776073 -1.809044
vn -0.0638 -0.9960 0.0626
vn 0.0638 -0.9960 0.0626
vn 0.0647 -0.9475 0.3131
vn -0.0647 -0.9475 0.3131
vn 0.0638 -0.9949 -0.0783
vn -0.0638 -0.9949 -0.0783
vn -0.0643 -0.9491 -0.3084
vn 0.0643 -0.9491 -0.3084
vn 0.0643 -0.5866 -0.8073
vn -0.0643 -0.5866 -0.8073
vn -0.0643 -0.3084 -0.9491
vn 0.0643 -0.3084 -0.9491
vn -0.0643 -0.8073 -0.5866
vn 0.0643 -0.8073 -0.5866
vn -0.0638 -0.0783 -0.9949
vn -0.0638 0.0626 -0.9960
vn 0.0638 0.0626 -0.9960
vn 0.0638 -0.0783 -0.9949
vn -0.0647 0.3131 -0.9475
vn 0.0647 0.3131 -0.9475
vn -0.0670 0.9960 -0.0599
vn 0.0670 0.9960 -0.0599
vn 0.0670 0.7466 -0.6619
vn -0.0670 0.7466 -0.6619
vn -0.0647 0.8914 0.4486
vn 0.0647 0.8914 0.4486
vn -0.0647 0.4486 0.8914
vn 0.0647 0.4486 0.8914
vn 0.0638 0.6600 0.7485
vn -0.0638 0.6600 0.7485
vn -0.0670 -0.6619 0.7466
vn 0.0670 -0.6619 0.7466
vn 0.0670 -0.0599 0.9960
vn -0.0670 -0.0599 0.9960
vn -0.0638 0.7485 0.6600
vn 0.0638 0.7485 0.6600
vn 0.9989 -0.0333 -0.0333
vn 0.9989 -0.0470 -0.0030
vn 0.9904 -0.1377 -0.0102
vn 0.9911 -0.1268 -0.0410
vn 0.9100 -0.4134 -0.0325
vn 0.9069 -0.4007 -0.1302
vn 0.5806 -0.8117 -0.0639
vn 0.5814 -0.7738 -0.2514
vn 0.2705 -0.9597 -0.0755
vn 0.2719 -0.9152 -0.2974
vn -0.9989 -0.0472 -0.0030
vn -0.9989 -0.0333 -0.0333
vn -0.9911 -0.1268 -0.0410
vn -0.9904 -0.1378 -0.0102
vn -0.9069 -0.4007 -0.1302
vn -0.9100 -0.4134 -0.0325
vn -0.5814 -0.7738 -0.2514
vn -0.5806 -0.8117 -0.0639
vn -0.2719 -0.9152 -0.2974
vn -0.2705 -0.9597 -0.0755
vn 0.9911 -0.1078 -0.0783
vn 0.9069 -0.3408 -0.2476
vn 0.5814 -0.6582 -0.4782
vn 0.2719 -0.7785 -0.5656
vn -0.9911 -0.1078 -0.0783
vn -0.9069 -0.3408 -0.2476
vn -0.5814 -0.6582 -0.4782
vn -0.2719 -0.7785 -0.5656
vn 0.9911 -0.0783 -0.1078
vn 0.9069 -0.2476 -0.3408
vn 0.5814 -0.4782 -0.6582
vn 0.2719 -0.5656 -0.7785
vn -0.9911 -0.0783 -0.1078
vn -0.9069 -0.2476 -0.3408
vn -0.5814 -0.4782 -0.6582
vn -0.2719 -0.5656 -0.7785
vn 0.9911 -0.0410 -0.1268
vn 0.9069 -0.1302 -0.4007
vn 0.5814 -0.2514 -0.7738
vn 0.2719 -0.2974 -0.9152
vn -0.9911 -0.0410 -0.1268
vn -0.9069 -0.1302 -0.4007
vn -0.5814 -0.2514 -0.7738
vn -0.2719 -0.2974 -0.9152
vn 0.9989 -0.0030 -0.0474
vn 0.9904 -0.0102 -0.1381
vn 0.9100 -0.0325 -0.4134
vn 0.5806 -0.0639 -0.8117
vn 0.2705 -0.0755 -0.9597
vn -0.9989 -0.0030 -0.0477
vn -0.9903 -0.0103 -0.1384
vn -0.9100 -0.0325 -0.4134
vn -0.5806 -0.0639 -0.8117
vn -0.2705 -0.0755 -0.9597
vn -0.9926 0.1120 -0.0473
vn -0.9894 0.1125 0.0921
vn -0.9067 0.3130 0.2826
vn -0.8926 0.4000 0.2079
vn -0.5807 0.6106 0.5385
vn -0.5826 0.7260 0.3653
vn -0.2704 0.7221 0.6367
vn -0.2730 0.8593 0.4324
vn -0.9916 0.0142 -0.1288
vn -0.9989 0.0475 -0.0068
vn 0.9895 0.1124 0.0903
vn 0.9935 0.1053 -0.0431
vn 0.8955 0.3958 0.2036
vn 0.9073 0.3126 0.2813
vn 0.5826 0.7260 0.3653
vn 0.5807 0.6106 0.5385
vn 0.2730 0.8593 0.4324
vn 0.2704 0.7221 0.6367
vn -0.8881 0.4585 -0.0314
vn -0.5919 0.8046 -0.0484
vn -0.2807 0.9581 -0.0577
vn 0.8939 0.4472 -0.0308
vn 0.5919 0.8046 -0.0484
vn 0.2807 0.9581 -0.0577
vn -0.8880 0.3468 -0.3021
vn -0.5919 0.6032 -0.5347
vn -0.2807 0.7182 -0.6367
vn 0.8940 0.3377 -0.2944
vn 0.5919 0.6032 -0.5347
vn 0.2807 0.7182 -0.6367
vn -0.8922 0.1360 -0.4306
vn -0.5826 0.2550 -0.7717
vn -0.2730 0.3019 -0.9134
vn 0.9988 0.0483 -0.0069
vn 0.9916 0.0153 -0.1282
vn 0.8957 0.1358 -0.4234
vn 0.5826 0.2550 -0.7717
vn 0.2730 0.3019 -0.9134
vn -0.9066 0.0213 -0.4214
vn -0.5807 0.0510 -0.8125
vn -0.2704 0.0604 -0.9608
vn 0.9074 0.0222 -0.4198
vn 0.5807 0.0510 -0.8125
vn 0.2704 0.0604 -0.9608
vn -0.9899 -0.0554 0.1304
vn -0.9917 -0.1281 0.0124
vn -0.9055 -0.4240 0.0201
vn -0.8861 -0.4431 0.1356
vn -0.5807 -0.8125 0.0510
vn -0.5826 -0.7717 0.2550
vn -0.2704 -0.9608 0.0604
vn -0.2730 -0.9134 0.3019
vn 0.9920 -0.1258 0.0145
vn 0.9924 -0.0455 0.1139
vn 0.8923 -0.4306 0.1357
vn 0.9067 -0.4212 0.0214
vn 0.5826 -0.7717 0.2550
vn 0.5807 -0.8125 0.0510
vn 0.2730 -0.9134 0.3019
vn 0.2704 -0.9608 0.0604
vn -0.8733 -0.3201 0.3672
vn -0.5919 -0.5347 0.6032
vn -0.2807 -0.6367 0.7182
vn 0.8871 -0.3034 0.3478
vn 0.5919 -0.5347 0.6032
vn 0.2807 -0.6367 0.7182
vn -0.8737 -0.0329 0.4854
vn -0.5919 -0.0484 0.8046
vn -0.2807 -0.0577 0.9581
vn 0.8868 -0.0318 0.4611
vn 0.5919 -0.0484 0.8046
vn 0.2807 -0.0577 0.9581
vn -0.9895 0.0925 0.1107
vn -0.9989 -0.0046 0.0458
vn -0.8868 0.2168 0.4081
vn -0.5826 0.3653 0.7260
vn -0.2730 0.4324 0.8593
vn 0.9989 -0.0048 0.0464
vn 0.9900 0.0888 0.1096
vn 0.8915 0.2092 0.4018
vn 0.5826 0.3653 0.7260
vn 0.2730 0.4324 0.8593
vn -0.9056 0.2851 0.3138
vn -0.5807 0.5385 0.6106
vn -0.2704 0.6367 0.7221
vn 0.9064 0.2833 0.3132
vn 0.5807 0.5385 0.6106
vn 0.2704 0.6367 0.7221
vt 0.388484 0.237500
vt 0.000000 0.000000
vt 0.387500 0.262500
vt 0.388180 0.241363
vt 0.387906 0.244847
vt 0.387501 0.255153
vt 0.387500 0.258637
vt 0.387500 0.236516
vt 0.000000 0.000000
vt 0.137500 0.512500
vt 0.383637 0.236820
vt 0.380153 0.237094
vt 0.375029 0.237686
vt 0.125000 0.512314
vt 0.375000 0.237312
vt 0.125000 0.512688
vt 0.133637 0.512548
vt 0.387648 0.237452
vt 0.387548 0.237352
vt 0.000000 0.000000
vt 0.383637 0.262500
vt 0.386340 0.241071
vt 0.385249 0.244427
vt 0.383300 0.249217
vt 0.382802 0.250000
vt 0.384011 0.255153
vt 0.383423 0.258637
vt 0.383733 0.258637
vt 0.137500 0.500000
vt 0.375000 0.262500
vt 0.385293 0.240538
vt 0.383219 0.243392
vt 0.379885 0.247345
vt 0.125000 0.500498
vt 0.380490 0.247784
vt 0.375835 0.250000
vt 0.133637 0.500128
vt 0.375214 0.258637
vt 0.137500 0.505153
vt 0.384462 0.239707
vt 0.381608 0.241781
vt 0.377216 0.244510
vt 0.125000 0.505490
vt 0.377655 0.245115
vt 0.125000 0.504654
vt 0.133637 0.505239
vt 0.133637 0.505025
vt 0.137500 0.508637
vt 0.383929 0.238660
vt 0.380573 0.239751
vt 0.375553 0.240989
vt 0.125000 0.509011
vt 0.375783 0.241700
vt 0.125000 0.508300
vt 0.133637 0.508733
vt 0.133637 0.508551
vt 0.387500 0.513484
vt 0.000000 0.000000
vt 0.362500 0.512500
vt 0.383637 0.513180
vt 0.380153 0.512906
vt 0.369847 0.512501
vt 0.366363 0.512500
vt 0.388484 0.512500
vt 0.000000 0.000000
vt 0.387500 0.487500
vt 0.388180 0.508637
vt 0.387905 0.505153
vt 0.387501 0.494847
vt 0.387500 0.491363
vt 0.387648 0.512548
vt 0.387548 0.512648
vt 0.000000 0.000000
vt 0.362500 0.508637
vt 0.383929 0.511340
vt 0.380573 0.510249
vt 0.369847 0.508656
vt 0.366363 0.508642
vt 0.362500 0.505153
vt 0.384462 0.510293
vt 0.381608 0.508219
vt 0.369847 0.505490
vt 0.377655 0.504885
vt 0.375000 0.504655
vt 0.366363 0.505239
vt 0.366363 0.505025
vt 0.362500 0.500000
vt 0.375000 0.487500
vt 0.385293 0.509462
vt 0.383219 0.506608
vt 0.379885 0.502655
vt 0.375000 0.500498
vt 0.380490 0.502216
vt 0.375835 0.500000
vt 0.366363 0.500128
vt 0.375214 0.491363
vt 0.383637 0.487500
vt 0.386340 0.508929
vt 0.385249 0.505573
vt 0.383300 0.500783
vt 0.382802 0.500000
vt 0.384011 0.494847
vt 0.383423 0.491363
vt 0.383733 0.491363
vt 0.384394 0.027072
vt 0.387500 0.025785
vt 0.000000 0.000000
vt 0.137500 0.725000
vt 0.383637 0.025542
vt 0.380153 0.025324
vt 0.375019 0.024851
vt 0.125000 0.725149
vt 0.375000 0.025150
vt 0.125000 0.724850
vt 0.133637 0.724962
vt 0.409471 0.953029
vt 0.386954 0.024169
vt 0.389263 0.021550
vt 0.392559 0.017586
vt 0.410145 0.964855
vt 0.392784 0.017784
vt 0.410567 0.964433
vt 0.409790 0.956573
vt 0.137500 0.731860
vt 0.384223 0.020902
vt 0.384438 0.020520
vt 0.382836 0.021183
vt 0.383258 0.021301
vt 0.380851 0.019787
vt 0.375807 0.018604
vt 0.125000 0.731395
vt 0.376095 0.017732
vt 0.125000 0.732268
vt 0.133637 0.731741
vt 0.133637 0.731965
vt 0.137500 0.736318
vt 0.381992 0.017761
vt 0.377971 0.014400
vt 0.125000 0.735600
vt 0.379138 0.013366
vt 0.125000 0.738984
vt 0.133637 0.736134
vt 0.133637 0.737002
vt 0.137500 0.750000
vt 0.375000 0.987500
vt 0.382614 0.017503
vt 0.381525 0.012377
vt 0.125000 0.747335
vt 0.383081 0.012283
vt 0.379134 0.995866
vt 0.133637 0.749317
vt 0.376040 0.990323
vt 0.400012 0.962488
vt 0.384855 0.018129
vt 0.386764 0.013313
vt 0.398305 0.976695
vt 0.387585 0.013726
vt 0.401311 0.973689
vt 0.399620 0.966743
vt 0.400376 0.965987
vt 0.597928 0.240606
vt 0.599215 0.237500
vt 0.000000 0.000000
vt 0.828029 0.534471
vt 0.600831 0.238046
vt 0.603450 0.235737
vt 0.607414 0.232441
vt 0.839855 0.535145
vt 0.607216 0.232216
vt 0.839433 0.535567
vt 0.831573 0.534790
vt 0.600000 0.262500
vt 0.599458 0.241363
vt 0.599676 0.244847
vt 0.599999 0.255153
vt 0.600000 0.258637
vt 0.837488 0.525012
vt 0.603699 0.241741
vt 0.603817 0.242164
vt 0.604480 0.240562
vt 0.604098 0.240777
vt 0.606871 0.240145
vt 0.611274 0.237415
vt 0.848689 0.526311
vt 0.611687 0.238236
vt 0.849924 0.525076
vt 0.840987 0.525375
vt 0.841298 0.525065
vt 0.843635 0.518865
vt 0.607497 0.242386
vt 0.612717 0.241919
vt 0.854635 0.520365
vt 0.612623 0.243475
vt 0.859421 0.515579
vt 0.847093 0.519270
vt 0.848297 0.518066
vt 0.862500 0.500000
vt 0.625000 0.262500
vt 0.607239 0.243008
vt 0.611634 0.245862
vt 0.871231 0.503769
vt 0.610600 0.247029
vt 0.622077 0.250000
vt 0.865414 0.500948
vt 0.624251 0.258637
vt 0.606860 0.262500
vt 0.605213 0.244149
vt 0.607268 0.248905
vt 0.608521 0.250000
vt 0.606395 0.255153
vt 0.607286 0.258637
vt 0.606741 0.258637
vt 0.384394 0.722928
vt 0.387500 0.724215
vt 0.000000 0.000000
vt 0.393562 0.743938
vt 0.386954 0.725831
vt 0.389263 0.728450
vt 0.393058 0.737095
vt 0.393292 0.740345
vt 0.362500 0.725000
vt 0.383637 0.724458
vt 0.380153 0.724676
vt 0.369847 0.724999
vt 0.366363 0.725000
vt 0.388468 0.749032
vt 0.384438 0.729480
vt 0.382836 0.728817
vt 0.384223 0.729098
vt 0.383258 0.728699
vt 0.384855 0.731871
vt 0.386764 0.736688
vt 0.386653 0.738347
vt 0.388428 0.741724
vt 0.387958 0.745679
vt 0.388357 0.745280
vt 0.362500 0.750000
vt 0.375000 0.762500
vt 0.382614 0.732497
vt 0.381525 0.737623
vt 0.375000 0.747335
vt 0.383081 0.737717
vt 0.377067 0.747933
vt 0.366363 0.749317
vt 0.375549 0.758088
vt 0.362500 0.736318
vt 0.381992 0.732239
vt 0.377971 0.735600
vt 0.375000 0.735600
vt 0.379138 0.736634
vt 0.375000 0.738984
vt 0.366363 0.736134
vt 0.366363 0.737002
vt 0.362500 0.731860
vt 0.380851 0.730212
vt 0.369847 0.731395
vt 0.376095 0.732268
vt 0.375000 0.732268
vt 0.366363 0.731741
vt 0.366363 0.731965
vt 0.597928 0.509394
vt 0.599215 0.512500
vt 0.000000 0.000000
vt 0.600000 0.487500
vt 0.599457 0.508637
vt 0.599676 0.505153
vt 0.599999 0.494847
vt 0.600000 0.491363
vt 0.618938 0.518562
vt 0.600831 0.511954
vt 0.603450 0.514263
vt 0.612095 0.518058
vt 0.615345 0.518292
vt 0.606860 0.487500
vt 0.603817 0.507836
vt 0.604480 0.509438
vt 0.603699 0.508258
vt 0.604098 0.509223
vt 0.605213 0.505851
vt 0.607268 0.501095
vt 0.608521 0.500000
vt 0.606395 0.494847
vt 0.607286 0.491363
vt 0.606741 0.491363
vt 0.637500 0.500000
vt 0.625000 0.487500
vt 0.607239 0.506992
vt 0.611634 0.504138
vt 0.623115 0.501885
vt 0.610600 0.502971
vt 0.622077 0.500000
vt 0.633137 0.500500
vt 0.624251 0.491363
vt 0.627342 0.510158
vt 0.607497 0.507614
vt 0.612717 0.508081
vt 0.614818 0.510182
vt 0.612623 0.506525
vt 0.617210 0.507790
vt 0.623494 0.510144
vt 0.624129 0.509508
vt 0.624032 0.513468
vt 0.606871 0.509855
vt 0.616724 0.513428
vt 0.611687 0.511764
vt 0.612462 0.512538
vt 0.620280 0.513357
vt 0.620444 0.513193
s 1
f 68/108/1 129/221/2 147/254/3 78/124/4
f 35/59/5 8/10/6 29/48/7 47/74/8
f 57/88/9 19/30/10 14/21/11 62/97/12
f 8/10/6 35/59/5 129/221/2 68/108/1
f 47/74/8 29/48/7 24/39/13 52/79/14
f 52/79/14 24/39/13 19/29/10 57/87/9
f 2/3/15 101/172/16 152/264/17 41/66/18
f 62/97/12 14/21/11 2/3/15 41/66/18
f 119/206/19 162/274/20 152/264/17 101/172/16
f 111/189/21 171/294/22 167/285/23 115/197/24
f 115/198/24 167/286/23 162/274/20 119/206/19
f 106/177/25 175/302/26 171/294/22 111/189/21
f 91/153/27 134/226/28 124/216/29 73/116/30
f 83/136/31 143/246/32 139/237/33 87/144/34
f 87/145/34 139/238/33 134/226/28 91/153/27
f 96/164/35 157/269/36 175/302/26 106/177/25
f 157/269/36 96/164/35 73/116/30 124/216/29
f 78/124/4 147/254/3 143/246/32 83/136/31
f 46/71/37 34/57/38 36/60/39 48/75/40
f 48/75/40 36/60/39 37/61/41 49/76/42
f 49/76/42 37/61/41 38/62/43 50/77/44
f 50/77/44 38/62/43 39/63/45 51/78/46
f 51/78/46 39/63/45 35/59/5 47/74/8
f 7/8/47 13/18/48 30/49/49 9/11/50
f 9/11/50 30/49/49 31/50/51 10/12/52
f 10/12/52 31/50/51 32/51/53 11/13/54
f 11/14/54 32/52/53 33/55/55 12/17/56
f 12/17/56 33/55/55 29/48/7 8/10/6
f 46/71/37 48/75/40 53/80/57
f 53/80/57 48/75/40 49/76/42 54/81/58
f 54/81/58 49/76/42 50/77/44 55/82/59
f 55/82/59 50/77/44 51/78/46 56/85/60
f 56/85/60 51/78/46 47/74/8 52/79/14
f 13/19/48 25/40/61 30/49/49
f 30/49/49 25/40/61 26/41/62 31/50/51
f 31/50/51 26/41/62 27/42/63 32/53/53
f 32/54/53 27/43/63 28/46/64 33/56/55
f 33/56/55 28/46/64 24/39/13 29/48/7
f 46/72/37 53/80/57 58/89/65
f 58/89/65 53/80/57 54/81/58 59/90/66
f 59/90/66 54/81/58 55/83/59 60/91/67
f 60/92/67 55/84/59 56/86/60 61/95/68
f 61/95/68 56/86/60 52/79/14 57/87/9
f 13/19/48 20/31/69 25/40/61
f 25/40/61 20/31/69 21/32/70 26/41/62
f 26/41/62 21/32/70 22/33/71 27/44/63
f 27/45/63 22/34/71 23/37/72 28/47/64
f 28/47/64 23/37/72 19/29/10 24/39/13
f 46/72/37 58/89/65 63/98/73
f 63/98/73 58/89/65 59/90/66 64/99/74
f 64/99/74 59/90/66 60/93/67 65/100/75
f 65/101/75 60/94/67 61/96/68 66/103/76
f 66/103/76 61/96/68 57/88/9 62/97/12
f 13/19/48 15/22/77 20/31/69
f 20/31/69 15/22/77 16/23/78 21/32/70
f 21/32/70 16/23/78 17/24/79 22/35/71
f 22/36/71 17/25/79 18/27/80 23/38/72
f 23/38/72 18/27/80 14/21/11 19/30/10
f 40/64/81 46/72/37 63/98/73 42/67/82
f 42/67/82 63/98/73 64/99/74 43/68/83
f 43/68/83 64/99/74 65/102/75 44/69/84
f 44/69/84 65/102/75 66/104/76 45/70/85
f 45/70/85 66/104/76 62/97/12 41/66/18
f 13/19/48 1/1/86 3/4/87 15/22/77
f 15/22/77 3/4/87 4/5/88 16/23/78
f 16/23/78 4/5/88 5/6/89 17/26/79
f 17/26/79 5/6/89 6/7/90 18/28/80
f 18/28/80 6/7/90 2/3/15 14/21/11
f 107/178/91 97/165/92 98/166/93 108/182/94
f 108/182/94 98/166/93 99/167/95 109/183/96
f 109/184/96 99/168/95 100/171/97 110/187/98
f 110/187/98 100/171/97 96/164/35 106/177/25
f 107/181/91 102/173/99 95/161/100 97/165/92
f 158/270/101 163/277/102 176/303/103 159/271/104
f 159/271/104 176/303/103 177/304/105 160/272/106
f 160/272/106 177/304/105 178/307/107 161/273/108
f 161/273/108 178/307/107 175/302/26 157/269/36
f 107/178/91 108/182/94 112/190/109
f 112/190/109 108/182/94 109/185/96 113/191/110
f 113/192/110 109/186/96 110/188/98 114/195/111
f 114/195/111 110/188/98 106/177/25 111/189/21
f 163/275/102 172/295/112 176/303/103
f 176/303/103 172/295/112 173/296/113 177/305/105
f 177/306/105 173/297/113 174/300/114 178/308/107
f 178/308/107 174/300/114 171/294/22 175/302/26
f 107/179/91 112/190/109 116/199/115
f 116/199/115 112/190/109 113/193/110 117/200/116
f 117/201/116 113/194/110 114/196/111 118/204/117
f 118/204/117 114/196/111 111/189/21 115/197/24
f 163/276/102 168/287/118 172/295/112
f 172/295/112 168/287/118 169/288/119 173/298/113
f 173/299/113 169/289/119 170/292/120 174/301/114
f 174/301/114 170/292/120 167/285/23 171/294/22
f 107/180/91 116/199/115 120/207/121
f 120/207/121 116/199/115 117/202/116 121/208/122
f 121/209/122 117/203/116 118/205/117 122/211/123
f 122/211/123 118/205/117 115/198/24 119/206/19
f 151/262/124 153/265/125 163/277/102 158/270/101
f 163/278/102 164/279/126 168/287/118
f 168/287/118 164/279/126 165/280/127 169/290/119
f 169/291/119 165/281/127 166/283/128 170/293/120
f 170/293/120 166/283/128 162/274/20 167/286/23
f 102/173/99 107/181/91 120/207/121 103/174/129
f 103/174/129 120/207/121 121/210/122 104/175/130
f 104/175/130 121/210/122 122/212/123 105/176/131
f 105/176/131 122/212/123 119/206/19 101/172/16
f 163/278/102 153/265/125 154/266/132 164/279/126
f 164/279/126 154/266/132 155/267/133 165/282/127
f 165/282/127 155/267/133 156/268/134 166/284/128
f 166/284/128 156/268/134 152/264/17 162/274/20
f 79/125/135 69/109/136 70/110/137 80/129/138
f 80/129/138 70/110/137 71/111/139 81/130/140
f 81/131/140 71/112/139 72/115/141 82/134/142
f 82/134/142 72/115/141 68/108/1 78/124/4
f 130/222/143 135/229/144 148/255/145 131/223/146
f 131/223/146 148/255/145 149/256/147 132/224/148
f 132/224/148 149/256/147 150/259/149 133/225/150
f 133/225/150 150/259/149 147/254/3 129/221/2
f 79/125/135 80/129/138 84/137/151
f 84/137/151 80/129/138 81/132/140 85/138/152
f 85/139/152 81/133/140 82/135/142 86/142/153
f 86/142/153 82/135/142 78/124/4 83/136/31
f 135/227/144 144/247/154 148/255/145
f 148/255/145 144/247/154 145/248/155 149/257/147
f 149/258/147 145/249/155 146/252/156 150/260/149
f 150/260/149 146/252/156 143/246/32 147/254/3
f 79/126/135 84/137/151 88/146/157
f 88/146/157 84/137/151 85/140/152 89/147/158
f 89/148/158 85/141/152 86/143/153 90/151/159
f 90/151/159 86/143/153 83/136/31 87/144/34
f 135/228/144 140/239/160 144/247/154
f 144/247/154 140/239/160 141/240/161 145/250/155
f 145/251/155 141/241/161 142/244/162 146/253/156
f 146/253/156 142/244/162 139/237/33 143/246/32
f 79/128/135 74/117/163 67/106/164 69/109/136
f 79/127/135 88/146/157 92/154/165
f 92/154/165 88/146/157 89/149/158 93/155/166
f 93/156/166 89/150/158 90/152/159 94/159/167
f 94/159/167 90/152/159 87/145/34 91/153/27
f 123/213/168 125/217/169 135/229/144 130/222/143
f 135/230/144 136/231/170 140/239/160
f 140/239/160 136/231/170 137/232/171 141/242/161
f 141/243/161 137/233/171 138/235/172 142/245/162
f 142/245/162 138/235/172 134/226/28 139/238/33
f 74/117/163 79/128/135 92/154/165 75/118/173
f 75/118/173 92/154/165 93/157/166 76/119/174
f 76/120/174 93/158/166 94/160/167 77/123/175
f 77/123/175 94/160/167 91/153/27 73/116/30
f 135/230/144 125/217/169 126/218/176 136/231/170
f 136/231/170 126/218/176 127/219/177 137/234/171
f 137/234/171 127/219/177 128/220/178 138/236/172
f 138/236/172 128/220/178 124/216/29 134/226/28
f 123/213/168 151/261/124 158/270/101 125/217/169
f 125/217/169 158/270/101 159/271/104 126/218/176
f 126/218/176 159/271/104 160/272/106 127/219/177
f 127/219/177 160/272/106 161/273/108 128/220/178
f 128/220/178 161/273/108 157/269/36 124/216/29
f 95/161/100 67/105/164 74/117/163 97/165/92
f 97/165/92 74/117/163 75/118/173 98/166/93
f 98/166/93 75/118/173 76/121/174 99/169/95
f 99/170/95 76/122/174 77/123/175 100/171/97
f 100/171/97 77/123/175 73/116/30 96/164/35
f 67/106/164 7/8/47 9/11/50 69/109/136
f 69/109/136 9/11/50 10/12/52 70/110/137
f 70/110/137 10/12/52 11/15/54 71/113/139
f 71/114/139 11/16/54 12/17/56 72/115/141
f 72/115/141 12/17/56 8/10/6 68/108/1
f 34/57/38 123/214/168 130/222/143 36/60/39
f 36/60/39 130/222/143 131/223/146 37/61/41
f 37/61/41 131/223/146 132/224/148 38/62/43
f 38/62/43 132/224/148 133/225/150 39/63/45
f 39/63/45 133/225/150 129/221/2 35/59/5
f 101/172/16 2/3/15 6/7/90 105/176/131
f 105/176/131 6/7/90 5/6/89 104/175/130
f 104/175/130 5/6/89 4/5/88 103/174/129
f 103/174/129 4/5/88 3/4/87 102/173/99
f 102/173/99 3/4/87 1/1/86 95/162/100
f 151/262/124 40/64/81 42/67/82 153/265/125
f 153/265/125 42/67/82 43/68/83 154/266/132
f 154/266/132 43/68/83 44/69/84 155/267/133
f 155/267/133 44/69/84 45/70/85 156/268/134
f 156/268/134 45/70/85 41/66/18 152/264/17
f 40/65/81 151/263/124 123/215/168 34/58/38
f 34/58/38 46/73/37 40/65/81
f 95/163/100 1/2/86 7/9/47 67/107/164
f 1/2/86 13/20/48 7/9/47
